name Walk3.mot
datacolumns 19
datarows 17
range 2.23500000 2.31500000
endheader

                time	   L_ground_force_vx	   L_ground_force_vy	   L_ground_force_vz	   L_ground_force_px	   L_ground_force_py	   L_ground_force_pz	   R_ground_force_vx	   R_ground_force_vy	   R_ground_force_vz	   R_ground_force_px	   R_ground_force_py	   R_ground_force_pz	   L_ground_torque_x	   L_ground_torque_y	   L_ground_torque_z	   R_ground_torque_x	   R_ground_torque_y	   R_ground_torque_z	
          2.23500000	          0.00000031	          0.00000101	         -0.00000003	         -0.00000000	          0.00000000	         -0.00000000	         50.42306806	        215.08382882	          6.23724859	          0.22274720	          0.00000000	          0.07469565	          0.00000000	          0.00000000	          0.00000000	          0.00000000	        -11.72427588	          0.00000000	
          2.24000000	          0.00000023	          0.00000081	         -0.00000003	         -0.00000000	          0.00000000	         -0.00000000	         40.00943237	        170.95820242	          6.50629058	          0.21606877	          0.00000000	          0.07200547	          0.00000000	          0.00000000	          0.00000000	          0.00000000	         -9.73604777	          0.00000000	
          2.24500000	          0.00000016	          0.00000062	         -0.00000002	         -0.00000000	          0.00000000	         -0.00000000	         30.19404618	        131.26535992	          6.20797501	          0.20596021	          0.00000000	          0.06830982	          0.00000000	          0.00000000	          0.00000000	          0.00000000	         -7.77159373	          0.00000000	
          2.25000000	          0.00000010	          0.00000045	         -0.00000002	         -0.00000000	          0.00000000	         -0.00000000	         21.41425513	         96.70421999	          5.50244528	          0.19191381	          0.00000000	          0.06343970	          0.00000000	          0.00000000	          0.00000000	          0.00000000	         -5.92817190	          0.00000000	
          2.25500000	          0.00000006	          0.00000030	         -0.00000001	         -0.00000000	          0.00000000	         -0.00000000	         13.96924647	         67.58757492	          4.57008297	          0.17370357	          0.00000000	          0.05729546	          0.00000000	          0.00000000	          0.00000000	          0.00000000	         -4.28235950	          0.00000000	
          2.26000000	          0.00000002	          0.00000018	         -0.00000001	         -0.00000000	          0.00000000	         -0.00000000	          8.00838847	         43.87284000	          3.57746553	          0.15158263	          0.00000000	          0.04992614	          0.00000000	          0.00000000	          0.00000000	          0.00000000	         -2.88534592	          0.00000000	
          2.26500000	          0.00000000	          0.00000009	         -0.00000001	         -0.00000000	          0.00000000	         -0.00000000	          3.52526002	         25.27356084	          2.64671401	          0.12655059	          0.00000000	          0.04163668	          0.00000000	          0.00000000	          0.00000000	          0.00000000	         -1.75948098	          0.00000000	
          2.27000000	         -0.00000001	          0.00000003	         -0.00000000	         -0.00000000	          0.00000000	         -0.00000000	          0.36928396	         11.35303658	          1.83961068	          0.10060683	          0.00000000	          0.03306784	          0.00000000	          0.00000000	          0.00000000	          0.00000000	         -0.89815935	          0.00000000	
          2.27500000	         -0.00000002	         -0.00000001	         -0.00000000	         -0.00000000	          0.00000000	         -0.00000000	         -1.68379067	          1.52819194	          1.17653902	          0.07601299	          0.00000000	          0.02495760	          0.00000000	          0.00000000	          0.00000000	          0.00000000	         -0.27477674	          0.00000000	
          2.28000000	         -0.00000003	         -0.00000004	         -0.00000000	         -0.00000000	          0.00000000	         -0.00000000	         -2.86722018	         -4.89315211	          0.65827400	          0.05422973	          0.00000000	          0.01778282	          0.00000000	         -0.00000000	          0.00000000	          0.00000000	          0.14671797	          0.00000000	
          2.28500000	         -0.00000003	         -0.00000006	          0.00000000	         -0.00000000	          0.00000000	         -0.00000000	         -3.39936815	         -8.62404648	          0.27385917	          0.03597163	          0.00000000	          0.01177536	          0.00000000	         -0.00000000	          0.00000000	          0.00000000	          0.40541075	          0.00000000	
          2.29000000	         -0.00000002	         -0.00000006	          0.00000000	         -0.00000000	          0.00000000	         -0.00000000	         -3.47177541	        -10.33453897	          0.00568244	          0.02141815	          0.00000000	          0.00699161	          0.00000000	         -0.00000000	          0.00000000	          0.00000000	          0.53924233	          0.00000000	
          2.29500000	         -0.00000002	         -0.00000006	          0.00000000	         -0.00000000	          0.00000000	         -0.00000000	         -3.24363333	        -10.61410759	         -0.16674352	          0.01039136	          0.00000000	          0.00337093	          0.00000000	         -0.00000000	          0.00000000	          0.00000000	          0.58241838	          0.00000000	
          2.30000000	         -0.00000002	         -0.00000005	          0.00000000	          0.00000000	          0.00000000	          0.00000000	         -2.84079806	         -9.95394196	         -0.26412955	          0.00249827	          0.00000000	          0.00078246	          0.00000000	         -0.00000000	          0.00000000	          0.00000000	          0.56404409	          0.00000000	
          2.30500000	         -0.00000001	         -0.00000004	          0.00000000	          0.00000000	          0.00000000	          0.00000000	         -2.35779483	         -8.74335408	         -0.30569187	         -0.00276100	          0.00000000	         -0.00093936	          0.00000000	         -0.00000000	          0.00000000	          0.00000000	          0.50765195	          0.00000000	
          2.31000000	         -0.00000001	         -0.00000004	          0.00000000	          0.00000000	          0.00000000	          0.00000000	         -1.86158115	         -7.27553394	         -0.30816845	         -0.00591531	          0.00000000	         -0.00196924	          0.00000000	         -0.00000000	          0.00000000	          0.00000000	          0.43133963	          0.00000000	
          2.31500000	         -0.00000001	         -0.00000003	          0.00000000	          0.00000000	          0.00000000	          0.00000000	         -1.39614037	         -5.75884255	         -0.28538424	         -0.00747028	          0.00000000	         -0.00247394	          0.00000000	         -0.00000000	          0.00000000	          0.00000000	          0.34828827	          0.00000000	
